<?xml version="1.0" encoding="UTF-8"?>
<svg id="Layer_1" data-name="Layer 1" xmlns="http://www.w3.org/2000/svg" viewBox="0 0 630.17 706.54">
  <defs>
    <style>
      .cls-1 {
        stroke-width: 0px;
      }
    </style>
  </defs>
  <path class="cls-1" d="m106,401.18c1.43-2,3.61-1.55,5.5-1.73,13.11-1.2,26.21-2.5,39.34-3.35,4.58-.3,6.87-2.46,8.42-6.37,5.09-12.84,9.88-25.82,15.51-38.43,13.95-31.22,29.36-61.65,50.54-88.77,6.89-8.82,14.34-17.11,24.06-22.99,11.29-6.83,20.21-4.47,26.68,7.14,5.38,9.67,7.15,20.42,8.39,31.16,1.41,12.23,2.79,24.5,2.89,36.85.02,3.1.74,6.01,2.49,8.5,6.95,9.84,11.83,20.82,17.63,31.3.4.73.76,1.49,1.23,2.17,2.5,3.6,3.7,3.53,5.6-.56,4.28-9.2,8.23-18.56,12.71-27.66,8.53-17.32,17.38-34.47,27.56-50.9.63-1.01,1.59-2.11.92-3.16-.73-1.15-2.1-.39-3.22-.21-5.08.84-10.07,2.36-15.28,2.32-1.61-.01-3.82,0-3.98-1.99-.14-1.79,2.06-1.9,3.43-2.22,5.84-1.32,11.67-2.87,17.59-3.65,4.72-.63,7.89-2.47,10.23-6.74,2.96-5.38,5.94-10.81,10.05-15.46,1.77-2,3.73-4.42,6.64-3.45,2.51.84,2.39,3.71,2.6,6.04.27,2.98.9,5.97.79,8.94-.16,4.1,1.47,4.69,5.14,3.98,17.49-3.38,34.99-6.75,52.56-9.74,33.5-5.7,67-11.44,101.12-12,4-.07,7.99-.39,11.97.28,1.05.18,2.04.6,2.07,1.77.04,1.28-1.11,1.6-2.09,1.7-5.13.52-10.27,1.11-15.42,1.41-31.82,1.85-63.2,7.07-94.61,12.09-3.8.61-3.83,2.9-3.65,5.76,2.41,38.47.8,76.94-.08,115.41-.66,28.84-3.42,57.53-6.19,86.22-.1.99-.27,1.99-.55,2.94-.65,2.21-2.48,2.61-4.37,2.42-2.4-.25-1.51-2.18-1.43-3.52,1.36-24.78,3.42-49.55,4-74.35.98-41.79,2.22-83.61.46-125.42-.31-7.36-.44-7.29-7.51-6.03-12.46,2.22-24.91,4.42-37.4,6.48-3.17.52-4.42,1.89-4.67,5.19-3.78,49.34-10.18,98.41-15.62,147.58-1.74,15.72-3.07,31.5-4.67,47.24-.21,2.07.78,5.29-2.91,5.24-4.04-.05-2.92-3.55-2.91-5.68.14-18.67,1.54-37.28,3.61-55.82,4.87-43.7,10.02-87.36,13.95-131.16.03-.33.15-.68.09-.99-.49-2.74,2.16-6.19-1.12-8.17-2.77-1.67-9.74,1.23-11.63,4.56-13.9,24.46-27.98,48.82-38.97,74.8-.32.77-.54,1.59-.95,2.31-6.48,11.32-7.09,22.7-1.96,34.91,3.56,8.48,4.43,17.71,3.12,26.99-.41,2.91-1.69,5.41-3.66,7.52-3.58,3.82-9.55,3.35-12.51-.97-2.91-4.27-3.91-9.13-4.15-14.2-.42-8.89.58-17.65,2.62-26.27,1.1-4.63.65-8.84-1.42-13.06-4.39-8.97-8.63-18.01-12.99-27-.69-1.42-1.2-3.72-3.13-3.29-1.75.39-.9,2.6-.93,3.96-.3,13.82-.49,27.65-.7,41.47-.04,2.34-.28,4.66,2.87,5.54,2.32.65,2.68,2.3.21,3.18-3.57,1.28-4.01,4.01-4.16,7.13-.81,16.97-1.62,33.94-2.49,50.91-.15,2.99-.49,5.97-.91,8.93-.27,1.9-1.08,3.73-3.42,3.52-2.53-.22-1.86-2.36-1.83-3.9.33-18.16.8-36.31.94-54.47.02-2.75,1.97-7.78-2.07-7.87-3.47-.07-1.8,4.97-1.9,7.65-.43,10.82-.44,21.65-.62,32.48-.03,1.67-.23,3.33-.16,4.99.11,2.7-1.45,3.43-3.75,3.5-2.74.08-2.23-2.01-2.24-3.53-.06-13.66-.04-27.32-.05-40.99,0-7.33-.02-7.48-7.04-7-30.74,2.1-61.47,4.38-92.22,6.36-4.21.27-6.09,2.01-7.4,5.79-6.06,17.5-9.83,35.59-14.1,53.56-.81,3.39-1.96,6.7-2.89,10.06-.73,2.64-2.71,2.67-4.76,2.26-2.42-.48-1.82-2.21-1.5-3.92,3.83-20.32,9.14-40.25,15.35-59.96,1.92-6.08,1.67-6.4-4.83-6.02-12.14.7-24.28,1.3-36.43,1.84-1.83.08-4.03.83-5.39-1.42Zm171.19-98.03c1.32-1.4,1.2-2.57,1.03-3.69-1.8-11.84-2.61-23.81-5.18-35.54-1.58-7.22-3.85-14.09-8.56-19.99-2.53-3.17-5.44-4-9.24-2.67-4.89,1.7-8.62,4.98-12.08,8.6-14.51,15.15-25.69,32.66-35.51,51.05-15.14,28.36-27.19,58.12-39.2,87.89-1.44,3.57-.13,3.91,2.92,3.74,30.08-1.71,60.17-3.38,90.26-4.98,3.62-.19,5.2-1.43,5.21-5.43.07-20.14-.04-40.31.9-60.42.5-10.8-1.27-20.01-9.8-27.2-.38-.32-.65-.76-.95-1.16-.8-1.09-1.7-2.23-.68-3.59.97-1.28,2.43-1.08,3.67-.61,3.43,1.28,6.79,2.34,10.61,2.09,2.22-.15,3.89,1.39,3.97,4.17.08,2.63.63,5.25,2.62,7.75Zm-.22,18.11c-1.47.89-1.12,1.99-1.15,2.93-.53,19.29-1.04,38.59-1.56,57.88-.05,1.69-.28,3.72,2.04,3.78,2.84.08,2.24-2.32,2.23-4.05-.05-18.64-.11-37.27-.23-55.91-.01-1.57.46-3.38-1.33-4.63Zm39.56,88.71c-.2-5.84-.91-11.27-2.79-16.48-.38-1.05-.71-2.52-2.09-2.43-1.51.1-1.37,1.72-1.53,2.77-.83,5.49-.32,10.97.63,16.38.45,2.57.12,6.9,3.64,6.56,4.05-.39,1.37-4.66,2.13-6.79Zm59.18-149.47c-.38-.79.38-3.34-1.49-2.98-2.44.47-3.64,3.11-4.47,5.39-.57,1.57.83,1.89,2.05,1.83,2.38-.11,4.16-.94,3.91-4.24Z"/>
  <path class="cls-1" d="m392.05,155.38c3.77.85,6.99,1.68,10.25,2.26,1.64.3,3.52.01,3.89,2.23.34,2.01-1.08,3.25-2.61,3.82-5.32,1.97-10.23,5.31-16.28,4.95-1.02-.06-1.88.58-2.14,2.16,3.72.47,7.31,1.52,10.51,3.49,2.01,1.23,3.85,2.81,3.68,5.52-.18,2.97-2.62,3.63-4.85,4.28-6.54,1.91-13.3,2.04-19.78.49-5.36-1.28-8.93.61-12.53,3.96-15.37,14.33-27.67,31.01-38.09,49.16-4.15,7.23-8.16,14.51-10.08,22.74-.59,2.52-1.62,5.04-5.01,4.12-3.19-.86-1.83-3.39-1.6-5.38,1.75-14.71,3.7-29.41,5.27-44.14,1.48-13.91-2.33-27.08-6.73-40.02-2.03-5.97-4.96-11.62-7.47-17.43-1.43-3.3-3.58-4.94-7.5-5.43-10.56-1.3-21.24-1.8-31.64-4.31-2.27-.55-4.42-.93-4.28-3.8.15-3.15,2.69-2.67,4.81-2.97,9.35-1.34,18.21.66,26.96,3.66,1.22.42,2.49.67,4.71,1.25-2.48-5.18-6-8.48-8.72-12.31-5.25-7.38-12.08-13.28-18.36-19.69-2.08-2.12-3.43-1.87-4.9.74-3.24,5.74-8.78,8.42-14.73,10.38-1.56.52-3.45.91-4.69-.53-1.19-1.39-.68-3.25-.09-4.76,1.4-3.56,4.22-5.93,7.38-7.88,1.27-.78,2.69-1.32,4.03-1.98,5.44-2.66,5.62-2.94,1.68-7.76-4.81-5.9-8.15-12.5-10.24-19.77-.52-1.83-1.97-4.13.3-5.42,2.36-1.34,4.92-.62,6.7,1.59,4.23,5.25,7.77,11.16,8.95,17.66,1.97,10.85,8.77,17.99,16.49,24.72.95.83,1.84,2.47,3.22,1.92,1.78-.71,1.12-2.76.84-3.99-1.6-7.18.14-13.94,2.61-20.5,1-2.67,1.46-7.06,5.6-6.56,4.3.53,2.05,4.71,2.36,7.09,1.08,8.35-2.3,16.17-4.93,23.71-1.95,5.6-.65,9.09,2.4,13.11,5.83,7.69,11.73,15.31,15.95,24.11,3.03,6.32,5.88,12.67,7.98,19.35.64,2.03,1,4.17,3.12,6.19,1.26-6.48,1.3-12.62,1.29-18.68-.06-21.81.54-43.65-2.12-65.39-.47-3.83-1.59-6.6-5.01-9.07-6.27-4.51-8.86-11.88-12.22-18.54-.39-.77-.39-1.68.29-2.32,1.08-1.03,2.17-.35,3.2.15,3.49,1.72,4.07,5.52,5.98,8.37,1.5,2.24,1.79,6.78,4.89,5.98,2.61-.67.78-4.77.71-7.27-.4-14.51-3.39-28.74-5.29-43.08-.79-5.93-5.28-10.29-8.16-15.32-2.64-4.62-5.61-9.06-8.16-13.72-.98-1.79-2.19-4.2.15-5.89,2.58-1.86,4.16.56,5.25,2.15,5.84,8.47,12.1,16.71,13.42,27.49.93,7.59,2.46,15.11,3.79,22.66.3,1.73.21,3.63,1.57,5.08,1.7-.25,1.91-1.77,2.53-2.85,1.81-3.18,3.3-6.57,5.37-9.57,1.57-2.28,2.78-6.05,6.66-4.74,3.85,1.31,2.78,5.08,2.44,7.8-1.19,9.4-5.67,17.33-12.26,23.99-1.81,1.83-2.87,3.58-2.63,6.08.96,9.94,1.92,19.88,2.97,29.81.11,1.01-.38,2.61,1.19,2.92,1.29.26,2.04-.94,2.78-1.8,2.31-2.71,5.24-4.61,8.29-6.34,1.56-.89,3.18-.97,4.66.25,1.58,1.3,1.26,2.71.59,4.45-2.36,6.11-6.9,9.98-13,11.31-3.23.71-3.53,1.98-3.43,4.56.4,10.49.7,20.98,1.04,31.47.87,26.58-2.72,52.86-5.22,79.21-.15,1.62-.19,3.26-.28,4.91,2.46.42,2.79-1.43,3.37-2.58,6.81-13.47,15.86-25.38,25.45-36.93,3.6-4.34,4.92-5.44-.59-9.93-5.93-4.82-8.91-11.54-7.67-19.52.22-1.38.02-3.1,1.96-3.67,1.95-.57,3.33.47,4.35,1.76,4.14,5.22,6.26,11.28,7.01,17.84.16,1.42-.67,3.19,1.14,3.98,1.85.8,3.14-.56,4.35-1.69,7.78-7.31,15.66-14.47,25.41-19.17,2.59-1.25,3.57-3.89,3.38-6.27-.35-4.57,2.59-7.76,3.95-11.59.31-.89,1-1.83,1.79-2.32,1.94-1.21,4.64-1.94,5.9.06,1.73,2.74-2.02,3.49-3.53,5.92Zm-7.95,26.45c0,.1,0,.19.01.29,3.12-.24,6.25-.4,9.36-.75.92-.1,2.01-.56,2.23-1.68.25-1.33-.67-2.15-1.66-2.78-4.44-2.85-14.94-1.83-18.84,1.8-.6.56-1.29,1.14-1.04,2.06.27.99,1.24,1.02,2.02,1.04,2.64.06,5.28.02,7.92.02Zm-67.02-113.04c5.39-7.41,11.15-14.66,10.29-24.6-5.7,7.25-10.59,14.83-10.29,24.6Zm-71.3,12.06c1.85,8,5.22,15.18,11.41,20.8-2.53-7.63-4.17-15.75-11.41-20.8Zm101.71,106.11c-.41-5.64-2.99-10.24-5.35-14.9-.43-.84-1.41-1.47-2.53-1.04-.91.35-.96,1.23-1.09,2.07-.69,4.65,3.91,12.1,8.97,13.87Zm-60.57-88.74c-4.31,5.06-4.8,11.06-4.43,17.27,3.23-5.29,5.5-10.84,4.43-17.27Zm-31.41,13.66c-1.8-.08-11.43,6.11-11.82,7.44-.49,1.65.49,2.27,1.84,1.86,4.16-1.27,7.76-3.55,10.57-6.89.72-.86.99-2.23-.59-2.41Zm77.47-2.87c-.26-2.11-1.76-2.22-3.17-1.32-2.6,1.66-5.15,3.47-7.46,5.51-1.59,1.4.38,1.95,1.18,2.31,2.29,1.04,9.36-3.83,9.44-6.5Zm60.56,55.44c1.93-.95,5.35.33,6.33-2.93.32-1.05-1.44-1.86-2.62-1.63-2.37.46-5.26.41-6.19,3.26-.36,1.09,1.08,1.41,2.48,1.3Zm-114.8-16.05c.12-.3.23-.59.35-.89-1.86-.96-3.72-1.93-5.6-2.86-.68-.34-1.35-.12-1.67.54-.39.79.21,1.29.84,1.49,2.01.63,4.05,1.15,6.08,1.72Zm-9.04-3.09c-1.41-2.26-3.25-3.34-6.83-1.23,2.61,1.19,4.48,1.77,6.83,1.23Z"/>
  <g>
    <path class="cls-1" d="m39.85,596.25H13.28l-4.89,11.27H0l22.02-50.39h9.18l21.94,50.39h-8.39l-4.89-11.27Zm-2.27-5.38l-11.01-25.6-11.01,25.6h22.02Z"/>
    <path class="cls-1" d="m111.51,607.52h-7.95l-31.99-40.36v40.36h-7.95v-50.76h7.95l31.99,40.29v-40.29h7.95v50.76Z"/>
    <path class="cls-1" d="m162.15,559.93c4.86,2.06,8.59,5.01,11.19,8.84,2.59,3.83,3.89,8.34,3.89,13.53s-1.3,9.68-3.89,13.49c-2.59,3.81-6.32,6.71-11.19,8.73-4.87,2.01-10.62,3.02-17.26,3.02h-18.96v-50.69h18.96c6.64,0,12.4,1.03,17.26,3.09Zm.74,36.94c4.14-3.47,6.2-8.33,6.2-14.58s-2.08-11.22-6.25-14.76c-4.17-3.54-10.15-5.31-17.96-5.31h-11.01v39.85h11.01c7.87,0,13.87-1.73,18-5.2Z"/>
    <path class="cls-1" d="m220.66,607.52l-14.51-20.72h-9.61v20.72h-7.95v-50.69h19.66c4.6,0,8.49.66,11.67,1.96,3.17,1.31,5.55,3.08,7.12,5.31,1.57,2.23,2.36,4.78,2.36,7.64,0,3.49-1.21,6.57-3.63,9.24-2.42,2.67-6.04,4.44-10.88,5.31l15.29,21.23h-9.53Zm-24.12-26.03h11.71c4.31,0,7.54-.88,9.7-2.65,2.15-1.77,3.23-4.13,3.23-7.09s-1.06-5.33-3.19-6.98c-2.13-1.65-5.37-2.47-9.74-2.47h-11.71v19.2Z"/>
    <path class="cls-1" d="m250.55,562.22v16.94h22.2v5.45h-22.2v17.45h24.82v5.45h-32.77v-50.76h32.77v5.45h-24.82Z"/>
    <path class="cls-1" d="m324.3,596.25h-26.57l-4.89,11.27h-8.39l22.02-50.39h9.18l21.93,50.39h-8.39l-4.89-11.27Zm-2.27-5.38l-11.01-25.6-11.01,25.6h22.02Z"/>
    <path class="cls-1" d="m434.07,557.2v50.32h-7.95v-37.52l-20.1,37.52h-5.59l-20.19-37.6v37.6h-7.95v-50.32h8.56l22.37,41.59,22.37-41.59h8.48Z"/>
    <path class="cls-1" d="m460.55,604.72c-4.66-2.21-8.35-5.28-11.06-9.24-2.71-3.95-4.06-8.4-4.06-13.34s1.35-9.39,4.06-13.34,6.39-7.03,11.06-9.24c4.66-2.21,9.82-3.31,15.47-3.31s10.89,1.1,15.56,3.31c4.66,2.21,8.33,5.27,11.01,9.2,2.68,3.93,4.02,8.39,4.02,13.38s-1.34,9.45-4.02,13.38c-2.68,3.93-6.35,6.99-11.01,9.2-4.66,2.21-9.85,3.31-15.56,3.31s-10.81-1.1-15.47-3.31Zm26.96-4.91c3.41-1.65,6.09-4,8.04-7.05,1.95-3.05,2.93-6.59,2.93-10.62s-.98-7.62-2.93-10.65c-1.95-3.03-4.62-5.37-8-7.02-3.38-1.65-7.23-2.47-11.54-2.47s-8.16.83-11.54,2.47c-3.38,1.65-6.04,3.99-8,7.02-1.95,3.03-2.93,6.58-2.93,10.65s.97,7.56,2.93,10.62c1.95,3.05,4.63,5.41,8.04,7.05,3.41,1.65,7.24,2.47,11.49,2.47s8.08-.82,11.49-2.47Z"/>
    <path class="cls-1" d="m550.03,607.52l-14.51-20.72h-9.61v20.72h-7.95v-50.69h19.66c4.6,0,8.49.66,11.67,1.96,3.17,1.31,5.55,3.08,7.12,5.31,1.57,2.23,2.36,4.78,2.36,7.64,0,3.49-1.21,6.57-3.63,9.24-2.42,2.67-6.04,4.44-10.88,5.31l15.29,21.23h-9.53Zm-24.12-26.03h11.71c4.31,0,7.54-.88,9.7-2.65,2.15-1.77,3.23-4.13,3.23-7.09s-1.06-5.33-3.19-6.98c-2.13-1.65-5.38-2.47-9.74-2.47h-11.71v19.2Z"/>
    <path class="cls-1" d="m584.12,604.72c-4.66-2.21-8.35-5.28-11.05-9.24-2.71-3.95-4.06-8.4-4.06-13.34s1.36-9.39,4.06-13.34,6.39-7.03,11.05-9.24c4.66-2.21,9.82-3.31,15.47-3.31s10.89,1.1,15.55,3.31c4.66,2.21,8.33,5.27,11.01,9.2s4.02,8.39,4.02,13.38-1.34,9.45-4.02,13.38-6.35,6.99-11.01,9.2c-4.66,2.21-9.85,3.31-15.55,3.31s-10.81-1.1-15.47-3.31Zm26.96-4.91c3.41-1.65,6.09-4,8.04-7.05,1.95-3.05,2.93-6.59,2.93-10.62s-.98-7.62-2.93-10.65c-1.95-3.03-4.62-5.37-8-7.02-3.38-1.65-7.22-2.47-11.54-2.47s-8.16.83-11.54,2.47c-3.38,1.65-6.05,3.99-8,7.02-1.95,3.03-2.93,6.58-2.93,10.65s.98,7.56,2.93,10.62c1.95,3.05,4.63,5.41,8.04,7.05,3.41,1.65,7.24,2.47,11.49,2.47s8.08-.82,11.49-2.47Z"/>
    <path class="cls-1" d="m209.7,655.85v5.38h-16.6v45.3h-7.95v-45.3h-16.69v-5.38h41.25Z"/>
    <path class="cls-1" d="m228.31,655.85v50.69h-7.95v-50.69h7.95Z"/>
    <path class="cls-1" d="m250.68,661.23v16.94h22.2v5.45h-22.2v17.45h24.82v5.45h-32.77v-50.76h32.77v5.45h-24.82Z"/>
    <path class="cls-1" d="m336.32,706.54h-7.95l-31.98-40.36v40.36h-7.95v-50.76h7.95l31.98,40.29v-40.29h7.95v50.76Z"/>
    <path class="cls-1" d="m386.96,658.94c4.86,2.06,8.59,5.01,11.19,8.84,2.59,3.83,3.89,8.34,3.89,13.53s-1.3,9.68-3.89,13.49c-2.59,3.81-6.32,6.71-11.19,8.73-4.87,2.01-10.62,3.02-17.26,3.02h-18.96v-50.69h18.96c6.64,0,12.39,1.03,17.26,3.09Zm.74,36.94c4.14-3.47,6.21-8.33,6.21-14.58s-2.08-11.22-6.25-14.76c-4.17-3.54-10.15-5.31-17.96-5.31h-11.01v39.85h11.01c7.87,0,13.87-1.73,18-5.2Z"/>
    <path class="cls-1" d="m449.4,695.27h-26.57l-4.89,11.27h-8.39l22.02-50.39h9.18l21.93,50.39h-8.39l-4.89-11.27Zm-2.27-5.38l-11.01-25.6-11.01,25.6h22.02Z"/>
  </g>
</svg>